<?xml version="1.0" encoding="UTF-8" standalone="no"?>
<svg
   width="1024"
   height="1024"
   version="1.1"
   id="svg326"
   sodipodi:docname="zulip-icon-macos.svg"
   inkscape:version="1.2.2 (b0a84865, 2022-12-01)"
   xmlns:inkscape="http://www.inkscape.org/namespaces/inkscape"
   xmlns:sodipodi="http://sodipodi.sourceforge.net/DTD/sodipodi-0.dtd"
   xmlns="http://www.w3.org/2000/svg"
   xmlns:svg="http://www.w3.org/2000/svg">
  <sodipodi:namedview
     id="namedview328"
     pagecolor="#505050"
     bordercolor="#eeeeee"
     borderopacity="1"
     inkscape:showpageshadow="0"
     inkscape:pageopacity="0"
     inkscape:pagecheckerboard="0"
     inkscape:deskcolor="#505050"
     showgrid="false"
     inkscape:zoom="0.80078125"
     inkscape:cx="441.4439"
     inkscape:cy="488.27317"
     inkscape:window-width="1390"
     inkscape:window-height="970"
     inkscape:window-x="592"
     inkscape:window-y="39"
     inkscape:window-maximized="0"
     inkscape:current-layer="svg326" />
  <defs
     id="defs320">
    <filter
       id="blur_shadow"
       x="-0.034951456"
       y="-0.034951458"
       width="1.0699029"
       height="1.0699029">
      <feGaussianBlur
         stdDeviation="12"
         id="feGaussianBlur317" />
    </filter>
    <linearGradient
       id="a"
       x1="0"
       y1="0"
       x2="0"
       y2="773.12"
       gradientUnits="userSpaceOnUse"
       gradientTransform="matrix(1.0658113,0,0,1.0658113,100.00001,100.00001)">
      <stop
         offset="0"
         stop-color="#50adff"
         id="stop2" />
      <stop
         offset="1"
         stop-color="#7877fc"
         id="stop4" />
    </linearGradient>
  </defs>
  <path
     d="m 923.99909,355.412 c 0,-9.782 0,-18.35 -0.056,-28.133 -0.049,-8.241 -0.144,-16.48 -0.368,-24.716 -0.484,-17.954 -1.543,-36.061 -4.736,-53.813 -3.238,-18.01 -8.526,-34.77 -16.859,-51.133 a 171.963,171.963 0 0 0 -31.661,-43.559 172.06,172.06 0 0 0 -43.574,-31.64 c -16.381,-8.335 -33.159,-13.621 -51.188,-16.858 -17.755,-3.188 -35.867,-4.245 -53.82,-4.73 -8.243,-0.223 -16.485,-0.317 -24.73,-0.368 -9.788,-0.06 -19.576,-0.055 -29.364,-0.055 L 553.99609,100 h -84.999 l -111.637,0.407 c -9.807,0 -19.614,-0.005 -29.421,0.055 -8.262,0.051 -16.52,0.145 -24.778,0.368 -17.995,0.485 -36.148,1.543 -53.945,4.735 -18.053,3.236 -34.857,8.52 -51.259,16.849 a 172.405,172.405 0 0 0 -43.667,31.644 171.994,171.994 0 0 0 -31.718,43.551 c -8.356,16.372 -13.654,33.143 -16.9,51.162 -3.196,17.746 -4.255,35.846 -4.742,53.792 -0.222,8.237 -0.318,16.476 -0.368,24.716 -0.06,9.784 -0.563,21.937 -0.563,31.72 v 195.999 l 0.508,112.429 c 0,9.796 -0.004,19.592 0.055,29.38797 0.05,8.252 0.146,16.502 0.369,24.751 0.486,17.976 1.547,36.109 4.746,53.886 3.245,18.032 8.542,34.818 16.891,51.201 a 172.24,172.24 0 0 0 31.722,43.619 172.444,172.444 0 0 0 43.659,31.684 c 16.412,8.346 33.224,13.639 51.288,16.88 17.789,3.193 35.936,4.252 53.924,4.737 8.258,0.223 16.517,0.318 24.779,0.368 9.807,0.059 19.613,0.059 29.42,0.059 h 310.283 c 9.788,0 19.576,0 29.364,-0.059 8.245,-0.05 16.487,-0.145 24.73,-0.368 17.96,-0.486 36.078,-1.546 53.841,-4.741 18.018,-3.241 34.788,-8.532 51.159,-16.873 a 172.004,172.004 0 0 0 43.582,-31.687 172.23,172.23 0 0 0 31.659,-43.612 c 8.337,-16.391 13.625,-33.184 16.865,-51.229 3.19,-17.77 4.248,-35.896 4.733,-53.865 0.223,-8.25 0.318,-16.5 0.367,-24.751 0.056,-9.79597 0.056,-19.59197 0.056,-29.38797 z"
     fill="rgba(0,0,0,0.3)"
     filter="url(#blur_shadow)"
     id="path322"
     style="fill:#000000;fill-opacity:0.50170648" />
  <path
     id="path7"
     style="fill:url(#a);stroke-width:1.06581"
     d="M 468.99805 100 L 357.36133 100.40625 C 347.55434 100.40625 337.74644 100.40289 327.93945 100.46289 C 319.67746 100.51389 311.4201 100.60708 303.16211 100.83008 C 285.16713 101.31508 267.01378 102.37246 249.2168 105.56445 C 231.16381 108.80045 214.36097 114.08507 197.95898 122.41406 A 172.405 172.405 0 0 0 154.29102 154.05859 A 171.994 171.994 0 0 0 122.57227 197.60938 C 114.21627 213.98136 108.91982 230.7525 105.67383 248.77148 C 102.47783 266.51747 101.41864 284.61652 100.93164 302.5625 C 100.70964 310.79949 100.6125 319.03931 100.5625 327.2793 C 100.5025 337.06329 100 349.21506 100 358.99805 L 100 554.99805 L 100.50781 667.42773 C 100.50781 677.22372 100.5035 687.01846 100.5625 696.81445 C 100.6125 705.06644 100.70864 713.31741 100.93164 721.56641 C 101.41764 739.54239 102.47874 757.67419 105.67773 775.45117 C 108.92273 793.48315 114.21937 810.26936 122.56836 826.65234 A 172.24 172.24 0 0 0 154.29102 870.27148 A 172.444 172.444 0 0 0 197.94922 901.95508 C 214.3612 910.30107 231.1743 915.59494 249.23828 918.83594 C 267.02726 922.02893 285.17413 923.08727 303.16211 923.57227 C 311.4201 923.79527 319.67941 923.89141 327.94141 923.94141 C 337.7484 924.00041 347.55434 924 357.36133 924 L 667.64453 924 C 677.43252 924 687.21982 924.00041 697.00781 923.94141 C 705.2528 923.89141 713.49529 923.79527 721.73828 923.57227 C 739.69826 923.08627 757.81514 922.02703 775.57812 918.83203 C 793.59611 915.59103 810.3673 910.29998 826.73828 901.95898 A 172.004 172.004 0 0 0 870.32031 870.27148 A 172.23 172.23 0 0 0 901.97852 826.66016 C 910.31551 810.26917 915.60375 793.47662 918.84375 775.43164 C 922.03375 757.66166 923.09117 739.53539 923.57617 721.56641 C 923.79917 713.31641 923.89436 705.06544 923.94336 696.81445 C 923.99936 687.01846 924 677.22372 924 667.42773 L 924 355.41211 C 924 345.63012 923.99936 337.06229 923.94336 327.2793 C 923.89436 319.03831 923.80017 310.79849 923.57617 302.5625 C 923.09217 284.60852 922.03284 266.50198 918.83984 248.75 C 915.60185 230.74002 910.31346 213.98017 901.98047 197.61719 A 171.963 171.963 0 0 0 870.32031 154.05859 A 172.06 172.06 0 0 0 826.74609 122.41797 C 810.36511 114.08298 793.58758 108.79754 775.55859 105.56055 C 757.80361 102.37255 739.69126 101.31508 721.73828 100.83008 C 713.49529 100.60708 705.2528 100.51389 697.00781 100.46289 C 687.21982 100.40289 677.43252 100.40625 667.64453 100.40625 L 553.99609 100 L 468.99805 100 z " />
  <path
     d="m 703.95264,661.94901 c 0,35.20375 -25.82461,64.00197 -57.38328,64.00197 H 377.42003 c -31.55867,0 -57.38328,-28.79822 -57.38328,-64.00197 0,-21.5507 9.68822,-40.71399 24.43905,-52.32067 L 487.68887,481.73098 c 2.66452,-2.28084 6.11775,1.39621 4.19929,4.46575 l -52.53384,105.18492 c -1.47082,2.94164 0.43699,6.5654 3.46389,6.5654 h 203.7618 c 31.55868,0 57.37263,28.80887 57.37263,64.00196 z m 0,-299.90864 c 0,21.55071 -9.68823,40.71399 -24.43906,52.32068 L 536.30052,542.2584 c -2.66453,2.28084 -6.11776,-1.39621 -4.1993,-4.46574 l 52.53384,-105.18492 c 1.47082,-2.94164 -0.43698,-6.5654 -3.46388,-6.5654 H 377.42003 c -31.55867,0 -57.38328,-28.79822 -57.38328,-64.00197 0,-35.20375 25.82461,-64.00197 57.38328,-64.00197 h 269.15998 c 31.55868,0 57.37263,28.79822 57.37263,64.00197 z"
     fill="#ffffff"
     id="path9"
     style="stroke-width:1.06581" />
</svg>
